# xmcd CD database file
#
# Track frame offsets:
#	150
#	22805
#	44265
#	66920
#
# Disc length: 1174 seconds
#
# Revision: 0
# Processed by: cddbd v1.5PL3 Copyright (c) Steve Scherf et al.
# Submitted via: CDex 1.50beta8
#
DISCID=2a049404
DTITLE=BOYSTYLE - MIRAI
DYEAR=2003
DGENRE=JPop
TTITLE0=MIRAI
TTITLE1=Brand New Myself
TTITLE2=MIRAI (Instrumental)
TTITLE3=Brand New Myself(Instrumental)
EXTD=YEAR: 2003
EXTT0=
EXTT1=
EXTT2=
EXTT3=
PLAYORDER=
